<?xml version="1.0" encoding="UTF-8"?>
<svg width="15px" height="24px" viewBox="0 0 15 24" version="1.1" xmlns="http://www.w3.org/2000/svg" xmlns:xlink="http://www.w3.org/1999/xlink">
    <!-- Generator: Sketch 50.2 (55047) - http://www.bohemiancoding.com/sketch -->
    <title>logo-nituniyo</title>
    <desc>Created with Sketch.</desc>
    <defs></defs>
    <g id="nituniyo-UI" stroke="none" stroke-width="1" fill="none" fill-rule="evenodd">
        <g id="iPhone-7" transform="translate(-19.000000, -18.000000)" fill="#000000" fill-rule="nonzero">
            <g id="logo-nituniyo-small" transform="translate(19.000000, 18.000000)">
                <path d="M12.1924782,4.23650903 C11.8898588,3.17980978 11.2865597,2.14286193 10.2952869,1.48119044 C8.16143161,0.0630407976 5.03048395,0.552875214 3.40875394,2.39962997 C1.90729577,4.1180007 2.36510472,6.60667556 2.22931393,8.58576461 C2.1323205,10.0473673 1.284598,11.4042876 0.793811281,12.7533074 C0.0450220641,14.8430042 -0.133445832,17.1104636 0.533868911,19.237688 C1.0382347,20.8415007 2.33406682,22.2517498 4.00623342,22.9627997 C7.54649332,24.4718058 12.4892781,23.0872335 13.9189611,19.6524672 C14.7240065,17.7207814 14.5455386,15.536278 13.7055756,13.644095 C13.1818111,12.4649372 12.3224494,11.3786108 12.0722064,10.1026712 C11.8394222,8.91758792 12.2584338,7.73250466 12.3922847,6.56717278 C12.5009173,5.62503158 12.4563003,5.15494856 12.1924782,4.23650903" id="Shape"></path>
            </g>
        </g>
    </g>
</svg>